{"title":"The Block - S12E29 - Kitchen Week Begins","uid":16004946,"size":1178890265,"categoryP":"video","categoryS":"tv_shows","magnet":"?xt=urn:btih:35859384443b4f991cfd05a5fb81cb0f37783f26&amp;dn=The+Block+-+S12E29+-+Kitchen+Week+Begins&amp;tr=udp%3A%2F%2Ftracker.leechers-paradise.org%3A6969&amp;tr=udp%3A%2F%2Fzer0day.ch%3A1337&amp;tr=udp%3A%2F%2Fopen.demonii.com%3A1337&amp;tr=udp%3A%2F%2Ftracker.coppersurfer.tk%3A6969&amp;tr=udp%3A%2F%2Fexodus.desync.com%3A6969","seeders":1,"leechers":1,"uploader":"Bullrout","files":1,"time":1476166580,"description":"The Block - S12E29 - Kitchen Week Begins\r\n\r\nAfter inspecting each other's hallways, laundries and powder rooms, friendships fracture. Attention quickly turns to kitchens and Keith and Dan call a meeting to ensure that all the kitchens are completed this week.\r\n\r\nComplete name : The Block - S12E29 - Kitchen Week Begins.mkv\r\nFormat : Matroska\r\nFormat version : Version 4 / Version 2\r\nFile size : 1.10 GiB\r\nDuration : 47 min 39 s\r\nOverall bit rate mode : Variable\r\nOverall bit rate : 3 298 kb/s\r\nEncoded date : UTC 2016-10-11 01:51:30\r\nWriting application : mkvmerge v9.4.2 ('So High') 64bit\r\nWriting library : libebml v1.3.4 + libmatroska v1.4.5\r\n\r\nVideo\r\nID : 2\r\nFormat : AVC\r\nFormat/Info : Advanced Video Codec\r\nFormat profile :   \r\nFormat settings, CABAC : Yes\r\nFormat settings, ReFrames : 3 frames\r\nCodec ID : V_MPEG4/ISO/AVC\r\nDuration : 47 min 39 s\r\nBit rate mode : Variable\r\nBit rate : 2 912 kb/s\r\nMaximum bit rate : 3 000 kb/s\r\nWidth : 1 280 pixels\r\nHeight : 720 pixels\r\nDisplay aspect ratio : 16:9\r\nFrame rate mode : Constant\r\nFrame rate : 25.000 FPS\r\nStandard : PAL\r\nColor space : YUV\r\nChroma subsampling : 4:2:0\r\nBit depth : 8 bits\r\nScan type : Progressive\r\nBits/(Pixel*Frame) : 0.126\r\nStream size : 993 MiB (88%)\r\nWriting library : x264 core 112\r\nDefault : Yes\r\nForced : No\r\nColor range : Limited\r\nColor primaries : BT.709\r\nTransfer characteristics : BT.709\r\nMatrix coefficients : BT.709\r\n\r\nAudio\r\nID : 1\r\nFormat : AC-3\r\nFormat/Info : Audio Coding 3\r\nMode extension : CM (complete main)\r\nFormat settings, Endianness : Big\r\nCodec ID : A_AC3\r\nDuration : 47 min 39 s\r\nBit rate mode : Constant\r\nBit rate : 384 kb/s\r\nChannel(s) : 6 channels\r\nChannel positions : Front: L C R, Side: L R, LFE\r\nSampling rate : 48.0 kHz\r\nFrame rate : 31.250 FPS (1536 spf)\r\nCompression mode : Lossy\r\nStream size : 131 MiB (12%)\r\nDefault : Yes\r\nForced : No","torrent":{"xt":"urn:btih:35859384443b4f991cfd05a5fb81cb0f37783f26","amp;dn":"The+Block+-+S12E29+-+Kitchen+Week+Begins","amp;tr":["udp%3A%2F%2Ftracker.leechers-paradise.org%3A6969","udp%3A%2F%2Fzer0day.ch%3A1337","udp%3A%2F%2Fopen.demonii.com%3A1337","udp%3A%2F%2Ftracker.coppersurfer.tk%3A6969","udp%3A%2F%2Fexodus.desync.com%3A6969"],"infoHash":"35859384443b4f991cfd05a5fb81cb0f37783f26","infoHashBuffer":{"type":"Buffer","data":[53,133,147,132,68,59,79,153,28,253,5,165,251,129,203,15,55,120,63,38]},"announce":[],"urlList":[]}}